<svg xmlns="http://www.w3.org/2000/svg" xmlns:xlink="http://www.w3.org/1999/xlink" width="500" zoomAndPan="magnify" viewBox="0 0 375 374.999991" height="500" preserveAspectRatio="xMidYMid meet" version="1.0"><defs><g/><clipPath id="2a7b2dc858"><path d="M 22.542969 22.542969 L 352.542969 22.542969 L 352.542969 352.542969 L 22.542969 352.542969 Z M 22.542969 22.542969 " clip-rule="nonzero"/></clipPath></defs><rect x="-37.5" width="450" fill="#ffffff" y="-37.499999" height="449.999989" fill-opacity="1"/><rect x="-37.5" width="450" fill="#ffffff" y="-37.499999" height="449.999989" fill-opacity="1"/><rect x="-37.5" width="450" fill="#ffffff" y="-37.499999" height="449.999989" fill-opacity="1"/><g clip-path="url(#2a7b2dc858)"><path fill="#292929" d="M 221.863281 344.625 C 298.09375 329.113281 352.542969 263.441406 352.542969 187.542969 C 352.542969 96.464844 278.625 22.542969 187.542969 22.542969 C 96.464844 22.542969 22.542969 96.464844 22.542969 187.542969 C 22.542969 259.152344 70.722656 322.183594 140.683594 342.644531 C 142.332031 342.972656 142.992188 343.304688 144.644531 343.304688 C 150.582031 343.304688 155.535156 347.59375 162.132812 347.59375 C 165.433594 347.59375 173.683594 346.601562 176.984375 346.601562 C 186.882812 346.601562 201.402344 352.542969 211.304688 352.542969 C 215.59375 352.542969 220.542969 349.242188 221.863281 344.625 Z M 135.402344 307.664062 C 85.902344 287.203125 53.894531 240.011719 53.894531 187.542969 C 53.894531 113.625 113.625 53.894531 187.542969 53.894531 C 261.464844 53.894531 321.195312 113.625 321.195312 187.542969 C 321.195312 244.304688 284.894531 294.464844 231.101562 312.941406 C 231.433594 307.003906 223.84375 303.375 215.261719 303.375 C 210.644531 303.375 206.351562 305.023438 204.042969 305.023438 C 200.742188 305.023438 194.804688 301.394531 188.863281 301.394531 C 182.261719 301.394531 171.042969 304.035156 161.144531 305.683594 C 151.242188 307.332031 140.351562 309.644531 135.402344 307.664062 Z M 135.402344 307.664062 " fill-opacity="1" fill-rule="nonzero"/><path fill="#a2a2a2" d="M 221.863281 344.625 C 298.09375 329.113281 352.542969 263.441406 352.542969 187.542969 C 352.542969 96.464844 278.625 22.542969 187.542969 22.542969 C 96.464844 22.542969 22.542969 96.464844 22.542969 187.542969 C 22.542969 259.152344 70.722656 322.183594 140.683594 342.644531 C 142.332031 342.972656 142.992188 343.304688 144.644531 343.304688 C 150.582031 343.304688 155.535156 347.59375 162.132812 347.59375 C 165.433594 347.59375 173.683594 346.601562 176.984375 346.601562 C 186.882812 346.601562 201.402344 352.542969 211.304688 352.542969 C 215.59375 352.542969 220.542969 349.242188 221.863281 344.625 Z M 140.351562 338.351562 C 72.703125 318.222656 26.503906 256.84375 26.503906 187.542969 C 26.503906 98.441406 98.441406 26.503906 187.542969 26.503906 C 276.644531 26.503906 348.582031 98.441406 348.582031 187.542969 C 348.582031 263.773438 292.484375 328.785156 215.59375 341.984375 C 203.714844 343.964844 187.214844 336.703125 187.214844 334.394531 C 187.214844 332.742188 194.144531 330.433594 195.464844 329.773438 C 274.332031 325.8125 336.042969 263.441406 336.042969 187.542969 C 336.042969 105.375 269.714844 39.042969 187.542969 39.042969 C 105.375 39.042969 39.042969 105.375 39.042969 187.542969 C 39.042969 238.363281 66.433594 285.882812 110.984375 311.953125 C 115.273438 313.933594 123.191406 314.261719 126.492188 314.261719 C 129.792969 314.261719 141.671875 313.601562 144.972656 311.953125 C 148.273438 310.304688 161.144531 308.652344 167.742188 307.003906 C 174.34375 305.351562 183.253906 304.035156 188.203125 304.035156 C 196.453125 304.035156 204.042969 308.984375 206.683594 308.652344 L 206.683594 307.992188 C 206.683594 307.003906 209.652344 306.34375 215.59375 306.34375 C 222.195312 306.34375 229.125 308.652344 228.464844 313.933594 L 220.542969 316.902344 C 213.945312 318.882812 210.972656 318.554688 207.671875 319.875 C 199.421875 322.511719 197.445312 326.144531 189.851562 329.441406 C 182.261719 332.742188 171.042969 332.742188 171.042969 334.394531 C 171.042969 335.382812 175.992188 335.714844 179.292969 336.042969 C 187.542969 337.035156 195.792969 343.632812 205.695312 344.625 C 212.292969 345.285156 213.945312 344.953125 218.5625 344.625 C 218.234375 346.273438 215.59375 349.574219 211.304688 349.574219 C 200.742188 349.574219 187.542969 343.304688 178.632812 343.304688 C 173.683594 343.304688 170.054688 345.285156 165.101562 345.285156 C 157.84375 345.285156 149.59375 339.34375 142.992188 335.382812 C 141.34375 334.394531 139.695312 333.402344 138.042969 333.402344 C 136.394531 333.402344 136.394531 333.734375 136.394531 334.0625 C 136.394531 335.382812 142.992188 337.363281 142.992188 338.351562 C 142.992188 339.011719 142.003906 338.683594 140.351562 338.351562 Z M 211.304688 322.183594 C 277.304688 310.632812 325.152344 253.875 325.152344 187.542969 C 325.152344 111.644531 263.445312 49.933594 187.542969 49.933594 C 111.644531 49.933594 49.933594 111.644531 49.933594 187.542969 C 49.933594 241.332031 82.933594 290.171875 133.753906 311.292969 C 125.832031 312.285156 116.59375 311.625 112.304688 309.644531 C 68.414062 283.902344 41.683594 237.703125 41.683594 187.542969 C 41.683594 107.023438 107.023438 41.683594 187.542969 41.683594 C 268.0625 41.683594 333.402344 107.023438 333.402344 187.542969 C 333.402344 260.144531 275.652344 320.535156 200.414062 326.804688 C 202.0625 326.144531 204.703125 322.84375 211.304688 322.183594 Z M 135.402344 307.664062 C 85.902344 287.203125 53.894531 240.011719 53.894531 187.542969 C 53.894531 113.625 113.625 53.894531 187.542969 53.894531 C 261.464844 53.894531 321.195312 113.625 321.195312 187.542969 C 321.195312 244.304688 284.894531 294.464844 231.101562 312.941406 C 231.433594 307.003906 223.84375 303.375 215.261719 303.375 C 210.644531 303.375 206.351562 305.023438 204.042969 305.023438 C 200.742188 305.023438 194.804688 301.394531 188.863281 301.394531 C 182.261719 301.394531 171.042969 304.035156 161.144531 305.683594 C 151.242188 307.332031 140.351562 309.644531 135.402344 307.664062 Z M 169.722656 312.941406 C 169.722656 313.601562 171.042969 313.933594 174.34375 313.933594 C 179.292969 314.261719 180.285156 318.222656 184.242188 318.222656 C 191.171875 318.222656 194.144531 315.253906 196.453125 315.253906 L 199.753906 315.914062 L 200.082031 315.253906 C 196.785156 312.941406 191.832031 309.644531 188.535156 309.644531 C 186.882812 309.644531 185.234375 309.972656 181.933594 310.964844 C 176.984375 312.285156 169.722656 312.285156 169.722656 312.941406 Z M 213.945312 310.632812 C 219.882812 311.625 219.554688 313.601562 222.851562 313.601562 C 223.84375 313.601562 224.503906 312.941406 224.503906 311.953125 C 224.503906 310.964844 220.542969 309.972656 214.273438 309.644531 Z M 213.945312 310.632812 " fill-opacity="1" fill-rule="nonzero"/></g><path fill="#000000" d="M 178.304688 313.273438 L 183.253906 312.285156 C 183.253906 313.933594 184.242188 315.582031 184.902344 316.574219 C 181.933594 316.574219 179.953125 313.933594 178.304688 313.273438 Z M 194.804688 313.933594 L 189.195312 316.242188 C 189.523438 314.59375 189.523438 312.941406 189.195312 311.292969 C 191.832031 311.953125 193.152344 312.941406 194.804688 313.933594 Z M 194.804688 313.933594 " fill-opacity="1" fill-rule="nonzero"/><g fill="#292929" fill-opacity="1"><g transform="translate(108.420793, 225.020196)"><g><path d="M 69.625 -74.53125 L 69.625 -90.28125 C 69.625 -90.738281 69.167969 -91.308594 68.367188 -91.308594 L 53.53125 -91.308594 C 30.816406 -91.308594 0 -84.691406 0 -45.65625 C 0 -5.136719 31.160156 0 53.53125 0 L 68.367188 0 C 69.167969 0 69.625 -0.570312 69.625 -1.027344 L 69.625 -56.953125 L 34.582031 -56.953125 L 34.582031 -39.492188 L 52.160156 -39.492188 L 52.160156 -16.664062 C 32.300781 -15.636719 17.578125 -23.96875 17.578125 -45.65625 C 17.578125 -73.847656 41.089844 -74.988281 52.160156 -74.53125 Z M 69.625 -74.53125 "/></g></g></g><g fill="#292929" fill-opacity="1"><g transform="translate(181.577772, 225.020196)"><g><path d="M 69.625 -74.53125 L 69.625 -90.28125 C 69.625 -90.738281 69.167969 -91.308594 68.367188 -91.308594 L 53.53125 -91.308594 C 30.816406 -91.308594 0 -84.691406 0 -45.65625 C 0 -5.136719 31.160156 0 53.53125 0 L 68.367188 0 C 69.167969 0 69.625 -0.570312 69.625 -1.027344 L 69.625 -56.953125 L 34.582031 -56.953125 L 34.582031 -39.492188 L 52.160156 -39.492188 L 52.160156 -16.664062 C 32.300781 -15.636719 17.578125 -23.96875 17.578125 -45.65625 C 17.578125 -73.847656 41.089844 -74.988281 52.160156 -74.53125 Z M 69.625 -74.53125 "/></g></g></g><g fill="#292929" fill-opacity="1"><g transform="translate(148.504333, 259.396701)"><g><path d="M 14.53125 -14.71875 C 14.5625 -14.40625 14.4375 -14.25 14.15625 -14.25 C 13.875 -14.25 13.6875 -14.382812 13.59375 -14.65625 C 13.34375 -15.488281 12.957031 -16.078125 12.4375 -16.421875 C 11.914062 -16.765625 11.195312 -16.9375 10.28125 -16.9375 L 6.484375 -16.9375 C 6.097656 -16.9375 5.785156 -16.828125 5.546875 -16.609375 C 5.316406 -16.398438 5.203125 -16.101562 5.203125 -15.71875 L 5.203125 -10.03125 C 5.203125 -9.800781 5.316406 -9.6875 5.546875 -9.6875 L 10.109375 -9.6875 C 10.328125 -9.6875 10.507812 -9.742188 10.65625 -9.859375 C 10.800781 -9.972656 10.894531 -10.085938 10.9375 -10.203125 C 10.988281 -10.328125 11.054688 -10.519531 11.140625 -10.78125 L 11.25 -11.109375 C 11.300781 -11.304688 11.410156 -11.40625 11.578125 -11.40625 C 11.816406 -11.40625 11.9375 -11.289062 11.9375 -11.0625 L 11.84375 -8.828125 L 11.9375 -6.6875 C 11.9375 -6.445312 11.828125 -6.328125 11.609375 -6.328125 C 11.398438 -6.328125 11.28125 -6.425781 11.25 -6.625 L 11.171875 -7.09375 C 11.097656 -7.539062 10.988281 -7.878906 10.84375 -8.109375 C 10.695312 -8.335938 10.453125 -8.453125 10.109375 -8.453125 L 5.515625 -8.453125 C 5.304688 -8.453125 5.203125 -8.328125 5.203125 -8.078125 L 5.203125 -1.703125 C 5.203125 -1.066406 5.582031 -0.710938 6.34375 -0.640625 L 7.125 -0.59375 C 7.332031 -0.59375 7.4375 -0.488281 7.4375 -0.28125 C 7.4375 -0.0195312 7.304688 0.109375 7.046875 0.109375 L 4.0625 0 L 1.140625 0.109375 C 0.898438 0.109375 0.78125 -0.00390625 0.78125 -0.234375 C 0.78125 -0.472656 0.875 -0.59375 1.0625 -0.59375 L 1.8125 -0.640625 C 2.15625 -0.679688 2.4375 -0.789062 2.65625 -0.96875 C 2.882812 -1.15625 3 -1.398438 3 -1.703125 L 3 -16.421875 C 3 -17.046875 2.601562 -17.390625 1.8125 -17.453125 L 1.0625 -17.53125 C 0.875 -17.53125 0.78125 -17.644531 0.78125 -17.875 C 0.78125 -18.113281 0.898438 -18.234375 1.140625 -18.234375 L 4.0625 -18.140625 L 13 -18.140625 C 13.332031 -18.140625 13.601562 -18.035156 13.8125 -17.828125 C 14.019531 -17.628906 14.140625 -17.382812 14.171875 -17.09375 Z M 14.53125 -14.71875 "/></g></g></g><g fill="#292929" fill-opacity="1"><g transform="translate(176.97163, 259.396701)"><g><path d="M 1.578125 0.109375 C 1.335938 0.109375 1.21875 0 1.21875 -0.21875 C 1.21875 -0.4375 1.3125 -0.5625 1.5 -0.59375 L 1.9375 -0.640625 C 2.644531 -0.734375 3 -1.085938 3 -1.703125 L 3 -16.421875 C 3 -17.046875 2.601562 -17.390625 1.8125 -17.453125 L 1.0625 -17.53125 C 0.875 -17.570312 0.78125 -17.6875 0.78125 -17.875 C 0.78125 -18.113281 0.898438 -18.234375 1.140625 -18.234375 L 4.0625 -18.140625 L 6.625 -18.234375 C 6.882812 -18.234375 7.015625 -18.128906 7.015625 -17.921875 C 7.015625 -17.679688 6.90625 -17.550781 6.6875 -17.53125 L 6.25 -17.453125 C 5.550781 -17.335938 5.203125 -16.992188 5.203125 -16.421875 L 5.203125 -1.703125 C 5.203125 -1.398438 5.3125 -1.15625 5.53125 -0.96875 C 5.757812 -0.789062 6.039062 -0.679688 6.375 -0.640625 L 7.125 -0.59375 C 7.332031 -0.59375 7.4375 -0.484375 7.4375 -0.265625 C 7.4375 -0.160156 7.394531 -0.0703125 7.3125 0 C 7.238281 0.0703125 7.160156 0.109375 7.078125 0.109375 L 4.140625 0 Z M 1.578125 0.109375 "/></g></g></g><g fill="#292929" fill-opacity="1"><g transform="translate(198.57592, 259.396701)"><g><path d="M 9.140625 -16.25 L 9.140625 -1.703125 C 9.140625 -1.398438 9.25 -1.15625 9.46875 -0.96875 C 9.695312 -0.789062 9.976562 -0.679688 10.3125 -0.640625 L 11.0625 -0.59375 C 11.269531 -0.59375 11.375 -0.484375 11.375 -0.265625 C 11.375 -0.160156 11.332031 -0.0703125 11.25 0 C 11.175781 0.0703125 11.097656 0.109375 11.015625 0.109375 L 8.078125 0 L 4.875 0.109375 C 4.78125 0.109375 4.691406 0.0703125 4.609375 0 C 4.535156 -0.0703125 4.5 -0.160156 4.5 -0.265625 C 4.5 -0.484375 4.601562 -0.59375 4.8125 -0.59375 L 5.78125 -0.640625 C 6.101562 -0.679688 6.375 -0.789062 6.59375 -0.96875 C 6.820312 -1.15625 6.9375 -1.398438 6.9375 -1.703125 L 6.9375 -16.25 C 6.9375 -16.707031 6.722656 -16.9375 6.296875 -16.9375 L 4.125 -16.9375 C 3.269531 -16.9375 2.601562 -16.707031 2.125 -16.25 C 1.644531 -15.789062 1.265625 -15.113281 0.984375 -14.21875 C 0.878906 -13.957031 0.734375 -13.828125 0.546875 -13.828125 C 0.367188 -13.828125 0.238281 -13.875 0.15625 -13.96875 C 0.0703125 -14.070312 0.0351562 -14.179688 0.046875 -14.296875 L 0.265625 -17.640625 C 0.296875 -17.972656 0.484375 -18.140625 0.828125 -18.140625 L 15.1875 -18.140625 C 15.539062 -18.140625 15.738281 -17.929688 15.78125 -17.515625 L 16.03125 -14.296875 C 16.050781 -14.160156 16.015625 -14.046875 15.921875 -13.953125 C 15.835938 -13.867188 15.707031 -13.828125 15.53125 -13.828125 C 15.351562 -13.828125 15.210938 -13.957031 15.109375 -14.21875 C 14.796875 -15.132812 14.398438 -15.816406 13.921875 -16.265625 C 13.453125 -16.710938 12.800781 -16.9375 11.96875 -16.9375 L 9.796875 -16.9375 C 9.359375 -16.9375 9.140625 -16.707031 9.140625 -16.25 Z M 9.140625 -16.25 "/></g></g></g></svg>